<?xml version="1.0" encoding="UTF-8" standalone="no"?><!DOCTYPE svg PUBLIC "-//W3C//DTD SVG 1.1//EN" "http://www.w3.org/Graphics/SVG/1.1/DTD/svg11.dtd"><svg width="100%" height="100%" viewBox="0 0 3000 596" version="1.1" xmlns="http://www.w3.org/2000/svg" xmlns:xlink="http://www.w3.org/1999/xlink" xml:space="preserve" xmlns:serif="http://www.serif.com/" style="fill-rule:evenodd;clip-rule:evenodd;stroke-linejoin:round;stroke-miterlimit:2;"><rect id="Page-2" serif:id="Page 2" x="0" y="0" width="3000" height="595.115" style="fill:none;"/><g id="Layer-1" serif:id="Layer 1"><path d="M725.152,385.226c54.857,0 92.157,-17.552 92.157,-65.275c0,-47.728 -37.3,-65.28 -92.157,-65.28l-191.443,0l0,130.555l191.443,0Zm89.965,195.835l-119.038,-139.335l-161.821,0l0,139.335l-65.829,0l0,-383.987l261.116,0c89.411,0 155.24,42.782 155.24,122.324c0,66.373 -46.08,106.968 -113.003,119.034l124.52,142.629l-81.185,0Z" style="fill:#fff;fill-rule:nonzero;"/><path d="M382.341,523.46l0,57.598l-382.341,0l0,-383.984l376.855,0l0,57.598l-311.58,0l0,102.576l262.209,0l0,57.597l-262.209,0l0,108.615l317.066,0Z" style="fill:#fff;fill-rule:nonzero;"/><path d="M1387.771,197.074l0,202.96c0,113.553 -72.958,192.545 -209,192.545c-135.487,0 -208.445,-78.992 -208.445,-192.545l0,-202.96l65.824,0l0,198.577c0,86.117 51.013,138.233 142.621,138.233c92.162,0 143.176,-52.116 143.176,-138.233l0,-198.577l65.824,0Z" style="fill:#fff;fill-rule:nonzero;"/><path d="M1843.59,323.236c0,-49.365 -36.756,-68.565 -93.26,-68.565l-188.148,0l0,137.135l188.148,0c56.504,0 93.26,-19.748 93.26,-68.57m67.472,-0.544c0,80.631 -61.986,125.618 -155.246,125.618l-193.634,0l0,132.752l-65.825,0l0,-383.988l259.459,0c93.26,0 155.246,45.522 155.246,125.618" style="fill:#fff;fill-rule:nonzero;"/><path d="M2355.9,254.669l-174.989,0l0,326.391l-65.825,0l0,-326.391l-173.89,0l0,-57.593l414.704,0l0,57.593Z" style="fill:#fff;fill-rule:nonzero;"/><path d="M2719.539,201.342l-63.205,88.737l-63.202,-88.737l-280.479,393.773l687.346,0l-280.46,-393.773Zm84.813,296.561l-115.892,-162.701l-1.587,-2.223l32.666,-45.851l179.877,252.54l4.338,6.087l-494.837,0l4.334,-6.087l176.682,-248.053l3.199,-4.487l32.645,45.835l-81.131,113.919l-36.333,51.003l63.131,0l169.783,0.018l63.125,0Zm-96.258,-49.358l-103.517,-0.023l51.757,-72.66l51.76,72.683Z" style="fill:url(#_Linear1);fill-rule:nonzero;"/><path d="M2612.104,49.364l88.447,0.016l7.533,0l-4.337,6.086l-44.223,62.086l-3.197,4.49l-3.2,-4.49l-44.225,-62.103l-4.335,-6.088l7.537,0.003Zm-67.466,1.64l79.562,111.695l32.127,45.126l32.142,-45.106l79.542,-111.699l36.336,-51.003l-63.128,0l-169.786,-0.016l-63.128,0l36.333,51.003Z" style="fill:#c43358;fill-rule:nonzero;"/></g><defs><linearGradient id="_Linear1" x1="0" y1="0" x2="1" y2="0" gradientUnits="userSpaceOnUse" gradientTransform="matrix(0,393.773132,-393.773132,0,2656.32544,201.341868)"><stop offset="0" style="stop-color:#c43358;stop-opacity:1"/><stop offset="0.5" style="stop-color:#6f5373;stop-opacity:1"/><stop offset="1" style="stop-color:#25777b;stop-opacity:1"/></linearGradient></defs></svg>