<?xml version="1.0" encoding="utf-8"?>
<!-- Generator: Adobe Illustrator 28.2.0, SVG Export Plug-In . SVG Version: 6.00 Build 0)  -->
<svg version="1.1" id="MYI_White_2024" xmlns="http://www.w3.org/2000/svg" xmlns:xlink="http://www.w3.org/1999/xlink" x="0px"
	 y="0px" viewBox="0 0 560.2 313.1" style="enable-background:new 0 0 560.2 313.1;" xml:space="preserve">
<style type="text/css">
	.st0{fill:#FFFFFF;}
</style>
<g>
	<path class="st0" d="M195.6,153.2L183,177.9l-12.6,24.7c-6.3,0.9-12.3,1.2-18.2,1.2s-11.8-0.3-18.2-1.2l-12.6-24.7L109,153.2v103.3
		c-7.5,1-17.1,1.5-26.7,1.5s-19.4-0.5-27.1-1.5V56.6c7.8-1.1,18.1-1.5,28.3-1.5s20.4,0.4,27.8,1.5l20.6,41.6l20.6,41.6l20.7-41.6
		l20.7-41.6c7.7-1.1,17.9-1.5,28-1.5s20.1,0.4,27.6,1.5v199.9c-7.4,1-17.1,1.5-26.7,1.5s-19.4-0.5-27.1-1.5L195.6,153.2L195.6,153.2
		z"/>
	<path class="st0" d="M322.8,172.2l-29.9-57.8L263,56.6c7.8-1.1,16.2-1.5,24.7-1.5s17,0.4,24.7,1.5l18.6,36l18.6,36l18.6-36l18.6-36
		c7.8-1.1,16.2-1.5,24.7-1.5s17,0.4,24.7,1.5l-29.9,57.8l-29.9,57.8v84.3c-7.5,1-17.1,1.5-26.7,1.5s-19.4-0.5-27.1-1.5L322.8,172.2
		L322.8,172.2z"/>
	<path class="st0" d="M450,56.6c8-1.1,17.9-1.5,27.8-1.5s19.7,0.4,27.3,1.5v199.9c-7.6,1-17.5,1.5-27.3,1.5s-19.8-0.5-27.8-1.5V56.6
		z"/>
</g>
</svg>
