<svg id="img" viewBox="0 0 30 30" fill="none" xmlns="http://www.w3.org/2000/svg">
  <circle cx="15" cy="15" r="15" fill="#4F4F4F"/>
  <path d="M19.5813 9.59953L21.6438 11.5902C21.7625 11.7089 21.7625 11.9027 21.6438 12.0214L14.8187 18.8464L12.5094 19.5058C12.1219 19.5495 11.7938 19.2214 11.8375 18.8339L12.325 16.4214L19.15 9.59953C19.2687 9.48078 19.4625 9.48078 19.5813 9.59953ZM23.8875 8.05578L23.1187 7.3589C22.6437 6.8839 21.8719 6.8839 21.3938 7.3589L20.2875 8.46515C20.1688 8.5839 20.1688 8.77765 20.2875 8.8964L22.35 10.887C22.4688 11.0058 22.6625 11.0058 22.7812 10.887L23.8875 9.78078C24.3625 9.30265 24.3625 8.53078 23.8875 8.05578ZM19 16.2402V20.9995H9V10.9995H16.1812C16.2812 10.9995 16.375 10.9589 16.4469 10.8902L17.6969 9.64015C17.9344 9.40265 17.7656 8.99953 17.4312 8.99953H8.5C7.67188 8.99953 7 9.6714 7 10.4995V21.4995C7 22.3277 7.67188 22.9995 8.5 22.9995H19.5C20.3281 22.9995 21 22.3277 21 21.4995V14.9902C21 14.6558 20.5969 14.4902 20.3594 14.7245L19.1094 15.9745C19.0406 16.0464 19 16.1402 19 16.2402Z" fill="currentColor"/>
</svg>
