<?xml version="1.0" encoding="utf-8"?>
<!-- Generator: Adobe Illustrator 28.0.0, SVG Export Plug-In . SVG Version: 6.00 Build 0)  -->
<svg version="1.1" xmlns="http://www.w3.org/2000/svg" xmlns:xlink="http://www.w3.org/1999/xlink"
	x="0px" y="0px"
	viewBox="0 0 729.9 212.3" style="enable-background:new 0 0 729.9 212.3;" xml:space="preserve">
<g id="Ebene_4">
	<g>
		<g>
			<path style="fill:#CB0A00;" d="M168.7,104.9h-14.5c-0.6,0-1-0.4-1-1V89.4c0-0.6,0.4-1,1-1h14.5c0.6,0,1,0.4,1,1v14.5
				C169.7,104.4,169.2,104.9,168.7,104.9z"/>
			<path style="fill:#CB0A00;" d="M187.3,104.9h-14.5c-0.6,0-1-0.4-1-1V89.4c0-0.6,0.4-1,1-1h14.5c0.6,0,1,0.4,1,1v14.5
				C188.3,104.4,187.8,104.9,187.3,104.9z"/>
			<path style="fill:#CB0A00;" d="M187.3,123.4h-14.5c-0.6,0-1-0.4-1-1v-14.5c0-0.6,0.4-1,1-1h14.5c0.6,0,1,0.4,1,1v14.5
				C188.3,123,187.8,123.4,187.3,123.4z"/>
			<path style="fill:#CB0A00;" d="M167.4,86h-12c-1.1,0-2-0.9-2-2V72c0-1.1,0.9-2,2-2h12c1.1,0,2,0.9,2,2v12
				C169.4,85.2,168.6,86,167.4,86z"/>
			<path style="fill:#CB0A00;" d="M187.3,86.3h-14.5c-0.6,0-1-0.4-1-1V70.8c0-0.6,0.4-1,1-1h14.5c0.6,0,1,0.4,1,1v14.5
				C188.3,85.9,187.8,86.3,187.3,86.3z"/>
			<path style="fill:#CB0A00;" d="M167.4,141.7h-12c-1.1,0-2-0.9-2-2v-12c0-1.1,0.9-2,2-2h12c1.1,0,2,0.9,2,2v12
				C169.4,140.8,168.6,141.7,167.4,141.7z"/>
			<path style="fill:#CB0A00;" d="M131.6,142h-14.5c-0.6,0-1-0.4-1-1v-14.5c0-0.6,0.4-1,1-1h14.5c0.6,0,1,0.4,1,1V141
				C132.6,141.5,132.1,142,131.6,142z"/>
			<path style="fill:#CB0A00;" d="M130.3,104.6h-12c-1.1,0-2-0.9-2-2v-12c0-1.1,0.9-2,2-2h12c1.1,0,2,0.9,2,2v12
				C132.3,103.7,131.4,104.6,130.3,104.6z"/>
			<path style="fill:#CB0A00;" d="M148.9,160.3h-12c-1.1,0-2-0.9-2-2v-12c0-1.1,0.9-2,2-2h12c1.1,0,2,0.9,2,2v12
				C150.9,159.4,150,160.3,148.9,160.3z"/>
			<path style="fill:#CB0A00;" d="M111.8,123.2h-12c-1.1,0-2-0.9-2-2v-12c0-1.1,0.9-2,2-2h12c1.1,0,2,0.9,2,2v12
				C113.8,122.3,112.9,123.2,111.8,123.2z"/>
			<path style="fill:#CB0A00;" d="M93.2,123.2h-12c-1.1,0-2-0.9-2-2v-12c0-1.1,0.9-2,2-2h12c1.1,0,2,0.9,2,2v12
				C95.2,122.3,94.3,123.2,93.2,123.2z"/>
			<path style="fill:#CB0A00;" d="M70.3,121.7h-3c-2.8,0-5-2.2-5-5v-3c0-2.8,2.2-5,5-5h3c2.8,0,5,2.2,5,5v3
				C75.3,119.4,73.1,121.7,70.3,121.7z"/>
			<path style="fill:#CB0A00;" d="M73.3,141.2h-9c-1.7,0-3-1.3-3-3v-9c0-1.7,1.3-3,3-3h9c1.7,0,3,1.3,3,3v9
				C76.3,139.9,75,141.2,73.3,141.2z"/>
			<path style="fill:#CB0A00;" d="M70.3,158.8h-3c-2.8,0-5-2.2-5-5v-3c0-2.8,2.2-5,5-5h3c2.8,0,5,2.2,5,5v3
				C75.3,156.5,73.1,158.8,70.3,158.8z"/>
			<path style="fill:#CB0A00;" d="M51.8,158.8h-3c-2.8,0-5-2.2-5-5v-3c0-2.8,2.2-5,5-5h3c2.8,0,5,2.2,5,5v3
				C56.8,156.5,54.5,158.8,51.8,158.8z"/>
			<path style="fill:#CB0A00;" d="M91.9,141.2h-9c-1.7,0-3-1.3-3-3v-9c0-1.7,1.3-3,3-3h9c1.7,0,3,1.3,3,3v9
				C94.9,139.9,93.5,141.2,91.9,141.2z"/>
			<path style="fill:#CB0A00;" d="M111.8,141.7h-12c-1.1,0-2-0.9-2-2v-12c0-1.1,0.9-2,2-2h12c1.1,0,2,0.9,2,2v12
				C113.8,140.8,112.9,141.7,111.8,141.7z"/>
			<path style="fill:#CB0A00;" d="M111.8,160.3h-12c-1.1,0-2-0.9-2-2v-12c0-1.1,0.9-2,2-2h12c1.1,0,2,0.9,2,2v12
				C113.8,159.4,112.9,160.3,111.8,160.3z"/>
			<path style="fill:#CB0A00;" d="M167.4,160.3h-12c-1.1,0-2-0.9-2-2v-12c0-1.1,0.9-2,2-2h12c1.1,0,2,0.9,2,2v12
				C169.4,159.4,168.6,160.3,167.4,160.3z"/>
			<path style="fill:#CB0A00;" d="M162.9,177.3h-3c-2.8,0-5-2.2-5-5v-3c0-2.8,2.2-5,5-5h3c2.8,0,5,2.2,5,5v3
				C167.9,175.1,165.7,177.3,162.9,177.3z"/>
			<path style="fill:#CB0A00;" d="M186,141.7h-12c-1.1,0-2-0.9-2-2v-12c0-1.1,0.9-2,2-2h12c1.1,0,2,0.9,2,2v12
				C188,140.8,187.1,141.7,186,141.7z"/>
			<path style="fill:#CB0A00;" d="M111.8,104.6h-12c-1.1,0-2-0.9-2-2v-12c0-1.1,0.9-2,2-2h12c1.1,0,2,0.9,2,2v12
				C113.8,103.7,112.9,104.6,111.8,104.6z"/>
			<path style="fill:#CB0A00;" d="M91.9,104.1h-9c-1.7,0-3-1.3-3-3v-9c0-1.7,1.3-3,3-3h9c1.7,0,3,1.3,3,3v9
				C94.9,102.8,93.5,104.1,91.9,104.1z"/>
			<path style="fill:#CB0A00;" d="M148.9,86h-12c-1.1,0-2-0.9-2-2V72c0-1.1,0.9-2,2-2h12c1.1,0,2,0.9,2,2v12
				C150.9,85.2,150,86,148.9,86z"/>
			<path style="fill:#CB0A00;" d="M130.3,86h-12c-1.1,0-2-0.9-2-2V72c0-1.1,0.9-2,2-2h12c1.1,0,2,0.9,2,2v12
				C132.3,85.2,131.4,86,130.3,86z"/>
			<path style="fill:#CB0A00;" d="M110.3,85.5h-9c-1.7,0-3-1.3-3-3v-9c0-1.7,1.3-3,3-3h9c1.7,0,3,1.3,3,3v9
				C113.3,84.2,111.9,85.5,110.3,85.5z"/>
			<path style="fill:#CB0A00;" d="M223.1,104.6h-12c-1.1,0-2-0.9-2-2v-12c0-1.1,0.9-2,2-2h12c1.1,0,2,0.9,2,2v12
				C225.1,103.7,224.2,104.6,223.1,104.6z"/>
			<path style="fill:#CB0A00;" d="M204.6,141.7h-12c-1.1,0-2-0.9-2-2v-12c0-1.1,0.9-2,2-2h12c1.1,0,2,0.9,2,2v12
				C206.6,140.8,205.7,141.7,204.6,141.7z"/>
			<path style="fill:#CB0A00;" d="M205.8,123.4h-14.5c-0.6,0-1-0.4-1-1v-14.5c0-0.6,0.4-1,1-1h14.5c0.6,0,1,0.4,1,1v14.5
				C206.8,123,206.4,123.4,205.8,123.4z"/>
			<path style="fill:#CB0A00;" d="M205.8,104.9h-14.5c-0.6,0-1-0.4-1-1V89.4c0-0.6,0.4-1,1-1h14.5c0.6,0,1,0.4,1,1v14.5
				C206.8,104.4,206.4,104.9,205.8,104.9z"/>
			<path style="fill:#CB0A00;" d="M223.1,123.2h-12c-1.1,0-2-0.9-2-2v-12c0-1.1,0.9-2,2-2h12c1.1,0,2,0.9,2,2v12
				C225.1,122.3,224.2,123.2,223.1,123.2z"/>
			<path style="fill:#CB0A00;" d="M223.1,141.7h-12c-1.1,0-2-0.9-2-2v-12c0-1.1,0.9-2,2-2h12c1.1,0,2,0.9,2,2v12
				C225.1,140.8,224.2,141.7,223.1,141.7z"/>
			<path style="fill:#CB0A00;" d="M181.5,158.8h-3c-2.8,0-5-2.2-5-5v-3c0-2.8,2.2-5,5-5h3c2.8,0,5,2.2,5,5v3
				C186.5,156.5,184.3,158.8,181.5,158.8z"/>
			<path style="fill:#CB0A00;" d="M107.3,177.3h-3c-2.8,0-5-2.2-5-5v-3c0-2.8,2.2-5,5-5h3c2.8,0,5,2.2,5,5v3
				C112.3,175.1,110,177.3,107.3,177.3z"/>
			<path style="fill:#CB0A00;" d="M130.3,178.8h-12c-1.1,0-2-0.9-2-2v-12c0-1.1,0.9-2,2-2h12c1.1,0,2,0.9,2,2v12
				C132.3,178,131.4,178.8,130.3,178.8z"/>
			<path style="fill:#CB0A00;" d="M148.9,178.8h-12c-1.1,0-2-0.9-2-2v-12c0-1.1,0.9-2,2-2h12c1.1,0,2,0.9,2,2v12
				C150.9,178,150,178.8,148.9,178.8z"/>
			<path style="fill:#CB0A00;" d="M204.6,160.3h-12c-1.1,0-2-0.9-2-2v-12c0-1.1,0.9-2,2-2h12c1.1,0,2,0.9,2,2v12
				C206.6,159.4,205.7,160.3,204.6,160.3z"/>
			<path style="fill:#CB0A00;" d="M200.1,177.3h-3c-2.8,0-5-2.2-5-5v-3c0-2.8,2.2-5,5-5h3c2.8,0,5,2.2,5,5v3
				C205.1,175.1,202.8,177.3,200.1,177.3z"/>
			<path style="fill:#CB0A00;" d="M221.6,178.3h-9c-1.7,0-3-1.3-3-3v-9c0-1.7,1.3-3,3-3h9c1.7,0,3,1.3,3,3v9
				C224.6,177,223.3,178.3,221.6,178.3z"/>
			<path style="fill:#CB0A00;" d="M221.6,159.8h-9c-1.7,0-3-1.3-3-3v-9c0-1.7,1.3-3,3-3h9c1.7,0,3,1.3,3,3v9
				C224.6,158.4,223.3,159.8,221.6,159.8z"/>
			<path style="fill:#CB0A00;" d="M237.2,158.8h-3c-2.8,0-5-2.2-5-5v-3c0-2.8,2.2-5,5-5h3c2.8,0,5,2.2,5,5v3
				C242.2,156.5,239.9,158.8,237.2,158.8z"/>
			<path style="fill:#CB0A00;" d="M255.7,158.8h-3c-2.8,0-5-2.2-5-5v-3c0-2.8,2.2-5,5-5h3c2.8,0,5,2.2,5,5v3
				C260.7,156.5,258.5,158.8,255.7,158.8z"/>
			<path style="fill:#CB0A00;" d="M274.3,158.8h-3c-2.8,0-5-2.2-5-5v-3c0-2.8,2.2-5,5-5h3c2.8,0,5,2.2,5,5v3
				C279.3,156.5,277.1,158.8,274.3,158.8z"/>
			<path style="fill:#CB0A00;" d="M274.3,140.2h-3c-2.8,0-5-2.2-5-5v-3c0-2.8,2.2-5,5-5h3c2.8,0,5,2.2,5,5v3
				C279.3,138,277.1,140.2,274.3,140.2z"/>
			<path style="fill:#CB0A00;" d="M292.9,140.2h-3c-2.8,0-5-2.2-5-5v-3c0-2.8,2.2-5,5-5h3c2.8,0,5,2.2,5,5v3
				C297.9,138,295.6,140.2,292.9,140.2z"/>
			<path style="fill:#CB0A00;" d="M258.7,141.2h-9c-1.7,0-3-1.3-3-3v-9c0-1.7,1.3-3,3-3h9c1.7,0,3,1.3,3,3v9
				C261.7,139.9,260.4,141.2,258.7,141.2z"/>
			<path style="fill:#CB0A00;" d="M260.2,123.2h-12c-1.1,0-2-0.9-2-2v-12c0-1.1,0.9-2,2-2h12c1.1,0,2,0.9,2,2v12
				C262.2,122.3,261.3,123.2,260.2,123.2z"/>
			<path style="fill:#CB0A00;" d="M277.3,122.7h-9c-1.7,0-3-1.3-3-3v-9c0-1.7,1.3-3,3-3h9c1.7,0,3,1.3,3,3v9
				C280.3,121.3,279,122.7,277.3,122.7z"/>
			<path style="fill:#CB0A00;" d="M240.2,141.2h-9c-1.7,0-3-1.3-3-3v-9c0-1.7,1.3-3,3-3h9c1.7,0,3,1.3,3,3v9
				C243.2,139.9,241.8,141.2,240.2,141.2z"/>
			<path style="fill:#CB0A00;" d="M241.7,104.6h-12c-1.1,0-2-0.9-2-2v-12c0-1.1,0.9-2,2-2h12c1.1,0,2,0.9,2,2v12
				C243.7,103.7,242.8,104.6,241.7,104.6z"/>
			<path style="fill:#CB0A00;" d="M258.7,104.1h-9c-1.7,0-3-1.3-3-3v-9c0-1.7,1.3-3,3-3h9c1.7,0,3,1.3,3,3v9
				C261.7,102.8,260.4,104.1,258.7,104.1z"/>
			<path style="fill:#CB0A00;" d="M274.3,103.1h-3c-2.8,0-5-2.2-5-5v-3c0-2.8,2.2-5,5-5h3c2.8,0,5,2.2,5,5v3
				C279.3,100.9,277.1,103.1,274.3,103.1z"/>
			<path style="fill:#CB0A00;" d="M292.9,103.1h-3c-2.8,0-5-2.2-5-5v-3c0-2.8,2.2-5,5-5h3c2.8,0,5,2.2,5,5v3
				C297.9,100.9,295.6,103.1,292.9,103.1z"/>
			<path style="fill:#CB0A00;" d="M186,67.5h-12c-1.1,0-2-0.9-2-2v-12c0-1.1,0.9-2,2-2h12c1.1,0,2,0.9,2,2v12
				C188,66.6,187.1,67.5,186,67.5z"/>
			<path style="fill:#CB0A00;" d="M181.5,47.4h-3c-2.8,0-5-2.2-5-5v-3c0-2.8,2.2-5,5-5h3c2.8,0,5,2.2,5,5v3
				C186.5,45.2,184.3,47.4,181.5,47.4z"/>
			<path style="fill:#CB0A00;" d="M205.8,86.3h-14.5c-0.6,0-1-0.4-1-1V70.8c0-0.6,0.4-1,1-1h14.5c0.6,0,1,0.4,1,1v14.5
				C206.8,85.9,206.4,86.3,205.8,86.3z"/>
			<path style="fill:#CB0A00;" d="M223.1,86h-12c-1.1,0-2-0.9-2-2V72c0-1.1,0.9-2,2-2h12c1.1,0,2,0.9,2,2v12
				C225.1,85.2,224.2,86,223.1,86z"/>
			<path style="fill:#CB0A00;" d="M204.6,67.5h-12c-1.1,0-2-0.9-2-2v-12c0-1.1,0.9-2,2-2h12c1.1,0,2,0.9,2,2v12
				C206.6,66.6,205.7,67.5,204.6,67.5z"/>
			<path style="fill:#CB0A00;" d="M223.1,67.5h-12c-1.1,0-2-0.9-2-2v-12c0-1.1,0.9-2,2-2h12c1.1,0,2,0.9,2,2v12
				C225.1,66.6,224.2,67.5,223.1,67.5z"/>
			<path style="fill:#CB0A00;" d="M240.2,85.5h-9c-1.7,0-3-1.3-3-3v-9c0-1.7,1.3-3,3-3h9c1.7,0,3,1.3,3,3v9
				C243.2,84.2,241.8,85.5,240.2,85.5z"/>
			<path style="fill:#CB0A00;" d="M240.2,67h-9c-1.7,0-3-1.3-3-3v-9c0-1.7,1.3-3,3-3h9c1.7,0,3,1.3,3,3v9
				C243.2,65.6,241.8,67,240.2,67z"/>
			<path style="fill:#CB0A00;" d="M167.4,67.5h-12c-1.1,0-2-0.9-2-2v-12c0-1.1,0.9-2,2-2h12c1.1,0,2,0.9,2,2v12
				C169.4,66.6,168.6,67.5,167.4,67.5z"/>
			<path style="fill:#CB0A00;" d="M147.4,67h-9c-1.7,0-3-1.3-3-3v-9c0-1.7,1.3-3,3-3h9c1.7,0,3,1.3,3,3v9
				C150.4,65.6,149,67,147.4,67z"/>
			<path style="fill:#CB0A00;" d="M128.8,67h-9c-1.7,0-3-1.3-3-3v-9c0-1.7,1.3-3,3-3h9c1.7,0,3,1.3,3,3v9
				C131.8,65.6,130.5,67,128.8,67z"/>
			<path style="fill:#CB0A00;" d="M203.1,48.4h-9c-1.7,0-3-1.3-3-3v-9c0-1.7,1.3-3,3-3h9c1.7,0,3,1.3,3,3v9
				C206.1,47.1,204.7,48.4,203.1,48.4z"/>
			<path style="fill:#CB0A00;" d="M218.6,47.4h-3c-2.8,0-5-2.2-5-5v-3c0-2.8,2.2-5,5-5h3c2.8,0,5,2.2,5,5v3
				C223.6,45.2,221.4,47.4,218.6,47.4z"/>
			<path style="fill:#CB0A00;" d="M107.3,66h-3c-2.8,0-5-2.2-5-5v-3c0-2.8,2.2-5,5-5h3c2.8,0,5,2.2,5,5v3
				C112.3,63.8,110,66,107.3,66z"/>
			<path style="fill:#CB0A00;" d="M241.7,123.2h-12c-1.1,0-2-0.9-2-2v-12c0-1.1,0.9-2,2-2h12c1.1,0,2,0.9,2,2v12
				C243.7,122.3,242.8,123.2,241.7,123.2z"/>
			<path style="fill:#CB0A00;" d="M130.3,160.3h-12c-1.1,0-2-0.9-2-2v-12c0-1.1,0.9-2,2-2h12c1.1,0,2,0.9,2,2v12
				C132.3,159.4,131.4,160.3,130.3,160.3z"/>
			<polygon style="fill:#FFFFFF;" points="169.9,106.7 169.9,123.7 151.4,123.7 151.4,142.2 134.4,142.2 134.4,123.7 115.8,123.7 
				115.8,106.7 134.4,106.7 134.4,88.1 151.4,88.1 151.4,106.7 			"/>
		</g>
		<g>
			<path style="fill:#FFFFFF;" d="M339.8,51.5H364v8.1h-14.3v5.8H362v8.1h-12.2v6.6h14.9v8.1h-24.8V51.5z"/>
			<path style="fill:#FFFFFF;" d="M370.5,85l4.4-6c2.7,1.9,5,2.8,7,2.8c2.1,0,2.9-0.6,2.9-1.7c0-1.5-2.7-2.1-5.5-3.3
				c-3.3-1.3-7.3-3.7-7.3-8.4c0-5.5,4.6-9.2,11.4-9.2c4.7,0,8.1,1.9,10.6,3.7l-4.4,5.8c-2.1-1.5-4.1-2.4-5.9-2.4
				c-1.7,0-2.5,0.5-2.5,1.6c0,1.5,2.5,2,5.4,3.1c3.5,1.2,7.4,3.4,7.4,8.5c0,5.3-4.3,9.4-12.3,9.4C378,88.9,373.5,87.4,370.5,85z"/>
			<path style="fill:#FFFFFF;" d="M399.3,60h8.1l0.7,2.6h0.2c2.1-1.9,5-3.3,7.8-3.3c6.8,0,11.2,5.7,11.2,14.4
				c0,9.7-5.9,15.3-12,15.3c-2.4,0-4.6-1-6.5-2.8l0.3,4.3v7.8h-9.9V60z M417.2,73.8c0-4.6-1.4-6.6-4-6.6c-1.5,0-2.7,0.6-3.9,2v10.4
				c1.2,1,2.4,1.4,3.7,1.4C415.2,81,417.2,79.2,417.2,73.8z"/>
			<path style="fill:#FFFFFF;" d="M432.5,74.1c0-9.4,6.9-14.8,14.3-14.8s14.3,5.4,14.3,14.8c0,9.4-6.9,14.8-14.3,14.8
				S432.5,83.5,432.5,74.1z M451,74.1c0-4.3-1.2-7-4.2-7c-3,0-4.2,2.7-4.2,7c0,4.3,1.2,7,4.2,7C449.8,81.1,451,78.4,451,74.1z"/>
			<path style="fill:#FFFFFF;" d="M466.9,60h8.1l0.7,4.9h0.2c2.1-3.8,5.4-5.5,8.2-5.5c1.8,0,2.8,0.2,3.6,0.6l-1.6,8.4
				c-1-0.2-2-0.5-3.2-0.5c-2.1,0-4.6,1.2-6,4.8v15.7h-9.9V60z"/>
			<path style="fill:#FFFFFF;" d="M496,77.4v-9.8h-3.8v-7.2l4.4-0.3l1.2-7.4h8.2V60h6.6v7.6h-6.6v9.7c0,3.1,1.6,4.1,3.5,4.1
				c0.9,0,1.8-0.2,2.5-0.5l1.5,7c-1.5,0.5-3.6,1-6.8,1C499.1,88.9,496,84.3,496,77.4z"/>
			<path style="fill:#FFFFFF;" d="M518.2,85l4.4-6c2.7,1.9,5,2.8,7,2.8c2.1,0,2.9-0.6,2.9-1.7c0-1.5-2.7-2.1-5.5-3.3
				c-3.3-1.3-7.3-3.7-7.3-8.4c0-5.5,4.6-9.2,11.4-9.2c4.7,0,8.1,1.9,10.6,3.7l-4.4,5.8c-2.1-1.5-4.1-2.4-5.9-2.4
				c-1.7,0-2.5,0.5-2.5,1.6c0,1.5,2.5,2,5.4,3.1c3.5,1.2,7.4,3.4,7.4,8.5c0,5.3-4.3,9.4-12.3,9.4C525.7,88.9,521.2,87.4,518.2,85z"
				/>
			<path style="fill:#FFFFFF;" d="M339.8,119.4h9.9v13.7h11.2v-13.7h9.9v36.8h-9.9v-14.6h-11.2v14.6h-9.9V119.4z"/>
			<path style="fill:#FFFFFF;" d="M378.4,145.3v-17.4h9.9v16.2c0,3.6,0.9,4.5,2.9,4.5c1.8,0,2.9-0.7,4.2-2.5v-18.2h9.9v28.3h-8.1
				l-0.7-3.7h-0.2c-2.3,2.7-5,4.4-8.9,4.4C381.1,156.8,378.4,152.3,378.4,145.3z"/>
			<path style="fill:#FFFFFF;" d="M420.8,153.1h-0.2l-0.8,3.1H412v-39.4h9.9v9.2l-0.2,4.1c2-1.8,4.6-2.8,7.1-2.8
				c6.8,0,11.2,5.7,11.2,14.3c0,9.8-5.9,15.3-12,15.3C425.5,156.8,423,155.6,420.8,153.1z M429.9,141.7c0-4.6-1.4-6.6-4-6.6
				c-1.5,0-2.7,0.6-3.9,2v10.4c1.2,1,2.4,1.4,3.7,1.4C427.9,148.9,429.9,147.1,429.9,141.7z"/>
		</g>
	</g>
</g>
</svg>
