<svg version="1.1" id="img" xmlns="http://www.w3.org/2000/svg" x="0px" y="0px" viewBox="0 0 920 276">
<g>
	<path style="fill:currentColor;" d="M183.8,71.1c-4.9-6.7-11.1-11.7-18.5-15.2c-7.4-3.5-15.7-5.2-24.8-5.2c-4.2,0-8.6,0.6-13.3,1.7c-4.7,1.1-8.9,3-12.8,5.5
		c-3.8,2.6-7,5.9-9.6,9.8c-2.6,3.9-3.9,8.8-3.9,14.4c0,7.4,2.9,13.3,8.7,17.6c5.8,4.3,13.9,8.3,24.2,12c11.3,3.9,21.5,8.3,30.3,13.1
		c8.9,4.8,16.4,10.3,22.6,16.5c6.2,6.2,10.9,13.1,14.1,20.9c3.2,7.8,4.8,16.6,4.8,26.5c0,15.8-3.3,29.2-9.8,40.3
		c-6.5,11.1-15,20.2-25.3,27.2c-10.4,7-22,12.2-34.8,15.4c-12.8,3.2-25.5,4.8-38.1,4.8c-9.4,0-18.7-0.9-28.1-2.6
		c-9.4-1.7-18.4-4.3-27-7.6c-8.6-3.3-16.6-7.6-24-12.8S4.7,242.4-0.5,235.7l45.5-37C50.2,206.6,57.8,213,68,218
		c10.1,4.9,20.4,7.4,30.7,7.4c5.4,0,10.7-0.6,15.7-1.7c5.1-1.1,9.6-3,13.5-5.5c3.9-2.6,7.1-5.9,9.4-10c2.3-4.1,3.5-8.9,3.5-14.6
		c0-9.1-3.7-16.3-11.1-21.6c-7.4-5.3-17.3-10-29.6-14.2c-8.6-3-16.7-6.3-24.2-10c-7.5-3.7-14.1-8.3-19.6-13.7
		c-5.5-5.4-10-11.9-13.3-19.4c-3.3-7.5-5-16.6-5-27.2C38,74,40.8,62,46.3,51.3c5.5-10.7,13.1-19.9,22.8-27.4
		c9.6-7.5,20.8-13.3,33.7-17.4c12.8-4.1,26.5-6.1,41.1-6.1c7.6,0,15.4,0.7,23.3,2.2c7.9,1.5,15.5,3.6,22.8,6.5
		c7.3,2.8,14,6.4,20.2,10.5c6.2,4.2,11.3,9,15.5,14.4L183.8,71.1z"/>
	<path style="fill:currentColor;" d="M232.2,269.4l46.2-262h167.6L436.9,60H328.1l-8.9,50.7h103.6l-8.9,49.6H310.3l-9.6,56.2h119.1l-9.2,52.9H232.2z"/>
</g>
<g>
	<path style="fill:#FF0000;" d="M506.9,7.9H586c14.8,0,29.5,2,44,6.1c14.6,4.1,27.6,10.5,39.2,19.2c11.6,8.8,21,20.1,28.1,34
		c7.2,13.9,10.7,30.7,10.7,50.1c0,22.9-4,43.8-12,62.5c-8,18.7-19.2,34.8-33.5,48.1c-14.3,13.3-31.2,23.6-50.7,30.9
		c-19.5,7.3-40.7,10.9-63.6,10.9h-87.7L506.9,7.9z M491,246.6h59.2c21.2,0,39.9-3.6,56.1-10.7c16.2-7.2,29.7-16.6,40.7-28.3
		c11-11.7,19.2-25.2,24.8-40.3s8.3-30.8,8.3-46.8c0-12.1-2-23.6-5.9-34.4c-3.9-10.9-10-20.4-18.1-28.5c-8.1-8.1-18.5-14.6-31.1-19.2
		c-12.6-4.7-27.5-7-44.8-7h-51.1L491,246.6z"/>
	<path style="fill:#FF0000;" d="M768.1,7.9h75.5c9.1,0,18.2,1,27.2,3c9,2,17.1,5.2,24.4,9.8c7.3,4.6,13.3,10.5,17.9,17.8
		c4.7,7.3,7,16.2,7,26.8c0,17.5-5.4,32-16.1,43.5c-10.7,11.5-24.7,19.3-42,23.5v0.7c14.3,2.2,26,8.2,35.1,17.9
		c9.1,9.7,13.7,22.4,13.7,37.9c0,13.3-2.8,25-8.3,35.2c-5.5,10.1-13.3,18.6-23.1,25.3c-9.9,6.8-21.6,11.9-35.3,15.4
		c-13.7,3.5-28.7,5.2-45,5.2h-77.3L768.1,7.9z M752.5,247.3h49.6c10.6,0,20.9-1,30.9-3.1c10-2.1,18.7-5.5,26.3-10.2
		c7.5-4.7,13.6-10.9,18.1-18.5c4.6-7.6,6.8-16.9,6.8-27.8c0-13.6-5.1-24.2-15.4-31.8c-10.2-7.6-24.9-11.5-43.8-11.5h-54.4
		L752.5,247.3z M774.4,122.6H828c6.9,0,14.2-0.9,21.8-2.6c7.6-1.7,14.6-4.6,20.9-8.7c6.3-4.1,11.5-9.4,15.5-15.9
		c4.1-6.5,6.1-14.7,6.1-24.6c0-7.2-1.4-13.3-4.3-18.3c-2.8-5.1-6.7-9.2-11.7-12.6c-4.9-3.3-10.8-5.7-17.6-7.2
		c-6.8-1.5-14.1-2.2-22-2.2h-46.2L774.4,122.6z"/>
</g>
</svg>
