<svg id="img" viewBox="0 0 37 30" xmlns="http://www.w3.org/2000/svg">
  <path
    d="M7.4 20.625H1.85C0.828453 20.625 0 21.4646 0 22.5V28.125C0 29.1604 0.828453 30 1.85 30H7.4C8.42155 30 9.25 29.1604 9.25 28.125V22.5C9.25 21.4646 8.42155 20.625 7.4 20.625ZM6.0125 15.9375H17.1125V18.75H19.8875V15.9375H30.9875V18.75H33.7625V15.3756C33.7625 14.1352 32.7664 13.125 31.5419 13.125H19.8875V9.375H22.2C23.2215 9.375 24.05 8.53535 24.05 7.5V1.875C24.05 0.839648 23.2215 0 22.2 0H14.8C13.7785 0 12.95 0.839648 12.95 1.875V7.5C12.95 8.53535 13.7785 9.375 14.8 9.375H17.1125V13.125H5.45808C4.23361 13.125 3.2375 14.1346 3.2375 15.3756V18.75H6.0125V15.9375ZM21.275 20.625H15.725C14.7035 20.625 13.875 21.4646 13.875 22.5V28.125C13.875 29.1604 14.7035 30 15.725 30H21.275C22.2965 30 23.125 29.1604 23.125 28.125V22.5C23.125 21.4646 22.2965 20.625 21.275 20.625ZM35.15 20.625H29.6C28.5785 20.625 27.75 21.4646 27.75 22.5V28.125C27.75 29.1604 28.5785 30 29.6 30H35.15C36.1715 30 37 29.1604 37 28.125V22.5C37 21.4646 36.1715 20.625 35.15 20.625Z"
    fill="currentColor"/>
</svg>
