<?xml version="1.0" encoding="utf-8"?>
<!-- Generator: Adobe Illustrator 28.0.0, SVG Export Plug-In . SVG Version: 6.00 Build 0)  -->
<svg version="1.1" xmlns="http://www.w3.org/2000/svg" xmlns:xlink="http://www.w3.org/1999/xlink"
	x="0px" y="0px"
	viewBox="0 0 729.9 212.3" style="enable-background:new 0 0 729.9 212.3;" xml:space="preserve">
<style type="text/css">
	.st0{fill:#CB0A00;}
	.st1{fill:#FFFFFF;}
	.st2{font-family:'MyriadPro-Regular';}
	.st3{font-size:24.6985px;}
</style>
<g id="Ebene_3">
</g>
<g id="Ebene_2">
</g>
<g id="Ebene_4">
	<g>
		<g>
			<path class="st0" d="M168.7,104.9h-14.5c-0.6,0-1-0.4-1-1V89.4c0-0.6,0.4-1,1-1h14.5c0.6,0,1,0.4,1,1v14.5
				C169.7,104.4,169.2,104.9,168.7,104.9z"/>
			<path class="st0" d="M187.3,104.9h-14.5c-0.6,0-1-0.4-1-1V89.4c0-0.6,0.4-1,1-1h14.5c0.6,0,1,0.4,1,1v14.5
				C188.3,104.4,187.8,104.9,187.3,104.9z"/>
			<path class="st0" d="M187.3,123.4h-14.5c-0.6,0-1-0.4-1-1v-14.5c0-0.6,0.4-1,1-1h14.5c0.6,0,1,0.4,1,1v14.5
				C188.3,123,187.8,123.4,187.3,123.4z"/>
			<path class="st0" d="M167.4,86h-12c-1.1,0-2-0.9-2-2V72c0-1.1,0.9-2,2-2h12c1.1,0,2,0.9,2,2v12C169.4,85.2,168.6,86,167.4,86z"/>
			<path class="st0" d="M187.3,86.3h-14.5c-0.6,0-1-0.4-1-1V70.8c0-0.6,0.4-1,1-1h14.5c0.6,0,1,0.4,1,1v14.5
				C188.3,85.9,187.8,86.3,187.3,86.3z"/>
			<path class="st0" d="M167.4,141.7h-12c-1.1,0-2-0.9-2-2v-12c0-1.1,0.9-2,2-2h12c1.1,0,2,0.9,2,2v12
				C169.4,140.8,168.6,141.7,167.4,141.7z"/>
			<path class="st0" d="M131.6,142h-14.5c-0.6,0-1-0.4-1-1v-14.5c0-0.6,0.4-1,1-1h14.5c0.6,0,1,0.4,1,1V141
				C132.6,141.5,132.1,142,131.6,142z"/>
			<path class="st0" d="M130.3,104.6h-12c-1.1,0-2-0.9-2-2v-12c0-1.1,0.9-2,2-2h12c1.1,0,2,0.9,2,2v12
				C132.3,103.7,131.4,104.6,130.3,104.6z"/>
			<path class="st0" d="M148.9,160.3h-12c-1.1,0-2-0.9-2-2v-12c0-1.1,0.9-2,2-2h12c1.1,0,2,0.9,2,2v12
				C150.9,159.4,150,160.3,148.9,160.3z"/>
			<path class="st0" d="M111.8,123.2h-12c-1.1,0-2-0.9-2-2v-12c0-1.1,0.9-2,2-2h12c1.1,0,2,0.9,2,2v12
				C113.8,122.3,112.9,123.2,111.8,123.2z"/>
			<path class="st0" d="M93.2,123.2h-12c-1.1,0-2-0.9-2-2v-12c0-1.1,0.9-2,2-2h12c1.1,0,2,0.9,2,2v12
				C95.2,122.3,94.3,123.2,93.2,123.2z"/>
			<path class="st0" d="M70.3,121.7h-3c-2.8,0-5-2.2-5-5v-3c0-2.8,2.2-5,5-5h3c2.8,0,5,2.2,5,5v3C75.3,119.4,73.1,121.7,70.3,121.7z
				"/>
			<path class="st0" d="M73.3,141.2h-9c-1.7,0-3-1.3-3-3v-9c0-1.7,1.3-3,3-3h9c1.7,0,3,1.3,3,3v9C76.3,139.9,75,141.2,73.3,141.2z"
				/>
			<path class="st0" d="M70.3,158.8h-3c-2.8,0-5-2.2-5-5v-3c0-2.8,2.2-5,5-5h3c2.8,0,5,2.2,5,5v3C75.3,156.5,73.1,158.8,70.3,158.8z
				"/>
			<path class="st0" d="M51.8,158.8h-3c-2.8,0-5-2.2-5-5v-3c0-2.8,2.2-5,5-5h3c2.8,0,5,2.2,5,5v3C56.8,156.5,54.5,158.8,51.8,158.8z
				"/>
			<path class="st0" d="M91.9,141.2h-9c-1.7,0-3-1.3-3-3v-9c0-1.7,1.3-3,3-3h9c1.7,0,3,1.3,3,3v9C94.9,139.9,93.5,141.2,91.9,141.2z
				"/>
			<path class="st0" d="M111.8,141.7h-12c-1.1,0-2-0.9-2-2v-12c0-1.1,0.9-2,2-2h12c1.1,0,2,0.9,2,2v12
				C113.8,140.8,112.9,141.7,111.8,141.7z"/>
			<path class="st0" d="M111.8,160.3h-12c-1.1,0-2-0.9-2-2v-12c0-1.1,0.9-2,2-2h12c1.1,0,2,0.9,2,2v12
				C113.8,159.4,112.9,160.3,111.8,160.3z"/>
			<path class="st0" d="M167.4,160.3h-12c-1.1,0-2-0.9-2-2v-12c0-1.1,0.9-2,2-2h12c1.1,0,2,0.9,2,2v12
				C169.4,159.4,168.6,160.3,167.4,160.3z"/>
			<path class="st0" d="M162.9,177.3h-3c-2.8,0-5-2.2-5-5v-3c0-2.8,2.2-5,5-5h3c2.8,0,5,2.2,5,5v3
				C167.9,175.1,165.7,177.3,162.9,177.3z"/>
			<path class="st0" d="M186,141.7h-12c-1.1,0-2-0.9-2-2v-12c0-1.1,0.9-2,2-2h12c1.1,0,2,0.9,2,2v12
				C188,140.8,187.1,141.7,186,141.7z"/>
			<path class="st0" d="M111.8,104.6h-12c-1.1,0-2-0.9-2-2v-12c0-1.1,0.9-2,2-2h12c1.1,0,2,0.9,2,2v12
				C113.8,103.7,112.9,104.6,111.8,104.6z"/>
			<path class="st0" d="M91.9,104.1h-9c-1.7,0-3-1.3-3-3v-9c0-1.7,1.3-3,3-3h9c1.7,0,3,1.3,3,3v9C94.9,102.8,93.5,104.1,91.9,104.1z
				"/>
			<path class="st0" d="M148.9,86h-12c-1.1,0-2-0.9-2-2V72c0-1.1,0.9-2,2-2h12c1.1,0,2,0.9,2,2v12C150.9,85.2,150,86,148.9,86z"/>
			<path class="st0" d="M130.3,86h-12c-1.1,0-2-0.9-2-2V72c0-1.1,0.9-2,2-2h12c1.1,0,2,0.9,2,2v12C132.3,85.2,131.4,86,130.3,86z"/>
			<path class="st0" d="M110.3,85.5h-9c-1.7,0-3-1.3-3-3v-9c0-1.7,1.3-3,3-3h9c1.7,0,3,1.3,3,3v9C113.3,84.2,111.9,85.5,110.3,85.5z
				"/>
			<path class="st0" d="M223.1,104.6h-12c-1.1,0-2-0.9-2-2v-12c0-1.1,0.9-2,2-2h12c1.1,0,2,0.9,2,2v12
				C225.1,103.7,224.2,104.6,223.1,104.6z"/>
			<path class="st0" d="M204.6,141.7h-12c-1.1,0-2-0.9-2-2v-12c0-1.1,0.9-2,2-2h12c1.1,0,2,0.9,2,2v12
				C206.6,140.8,205.7,141.7,204.6,141.7z"/>
			<path class="st0" d="M205.8,123.4h-14.5c-0.6,0-1-0.4-1-1v-14.5c0-0.6,0.4-1,1-1h14.5c0.6,0,1,0.4,1,1v14.5
				C206.8,123,206.4,123.4,205.8,123.4z"/>
			<path class="st0" d="M205.8,104.9h-14.5c-0.6,0-1-0.4-1-1V89.4c0-0.6,0.4-1,1-1h14.5c0.6,0,1,0.4,1,1v14.5
				C206.8,104.4,206.4,104.9,205.8,104.9z"/>
			<path class="st0" d="M223.1,123.2h-12c-1.1,0-2-0.9-2-2v-12c0-1.1,0.9-2,2-2h12c1.1,0,2,0.9,2,2v12
				C225.1,122.3,224.2,123.2,223.1,123.2z"/>
			<path class="st0" d="M223.1,141.7h-12c-1.1,0-2-0.9-2-2v-12c0-1.1,0.9-2,2-2h12c1.1,0,2,0.9,2,2v12
				C225.1,140.8,224.2,141.7,223.1,141.7z"/>
			<path class="st0" d="M181.5,158.8h-3c-2.8,0-5-2.2-5-5v-3c0-2.8,2.2-5,5-5h3c2.8,0,5,2.2,5,5v3
				C186.5,156.5,184.3,158.8,181.5,158.8z"/>
			<path class="st0" d="M107.3,177.3h-3c-2.8,0-5-2.2-5-5v-3c0-2.8,2.2-5,5-5h3c2.8,0,5,2.2,5,5v3
				C112.3,175.1,110,177.3,107.3,177.3z"/>
			<path class="st0" d="M130.3,178.8h-12c-1.1,0-2-0.9-2-2v-12c0-1.1,0.9-2,2-2h12c1.1,0,2,0.9,2,2v12
				C132.3,178,131.4,178.8,130.3,178.8z"/>
			<path class="st0" d="M148.9,178.8h-12c-1.1,0-2-0.9-2-2v-12c0-1.1,0.9-2,2-2h12c1.1,0,2,0.9,2,2v12
				C150.9,178,150,178.8,148.9,178.8z"/>
			<path class="st0" d="M204.6,160.3h-12c-1.1,0-2-0.9-2-2v-12c0-1.1,0.9-2,2-2h12c1.1,0,2,0.9,2,2v12
				C206.6,159.4,205.7,160.3,204.6,160.3z"/>
			<path class="st0" d="M200.1,177.3h-3c-2.8,0-5-2.2-5-5v-3c0-2.8,2.2-5,5-5h3c2.8,0,5,2.2,5,5v3
				C205.1,175.1,202.8,177.3,200.1,177.3z"/>
			<path class="st0" d="M221.6,178.3h-9c-1.7,0-3-1.3-3-3v-9c0-1.7,1.3-3,3-3h9c1.7,0,3,1.3,3,3v9
				C224.6,177,223.3,178.3,221.6,178.3z"/>
			<path class="st0" d="M221.6,159.8h-9c-1.7,0-3-1.3-3-3v-9c0-1.7,1.3-3,3-3h9c1.7,0,3,1.3,3,3v9
				C224.6,158.4,223.3,159.8,221.6,159.8z"/>
			<path class="st0" d="M237.2,158.8h-3c-2.8,0-5-2.2-5-5v-3c0-2.8,2.2-5,5-5h3c2.8,0,5,2.2,5,5v3
				C242.2,156.5,239.9,158.8,237.2,158.8z"/>
			<path class="st0" d="M255.7,158.8h-3c-2.8,0-5-2.2-5-5v-3c0-2.8,2.2-5,5-5h3c2.8,0,5,2.2,5,5v3
				C260.7,156.5,258.5,158.8,255.7,158.8z"/>
			<path class="st0" d="M274.3,158.8h-3c-2.8,0-5-2.2-5-5v-3c0-2.8,2.2-5,5-5h3c2.8,0,5,2.2,5,5v3
				C279.3,156.5,277.1,158.8,274.3,158.8z"/>
			<path class="st0" d="M274.3,140.2h-3c-2.8,0-5-2.2-5-5v-3c0-2.8,2.2-5,5-5h3c2.8,0,5,2.2,5,5v3
				C279.3,138,277.1,140.2,274.3,140.2z"/>
			<path class="st0" d="M292.9,140.2h-3c-2.8,0-5-2.2-5-5v-3c0-2.8,2.2-5,5-5h3c2.8,0,5,2.2,5,5v3
				C297.9,138,295.6,140.2,292.9,140.2z"/>
			<path class="st0" d="M258.7,141.2h-9c-1.7,0-3-1.3-3-3v-9c0-1.7,1.3-3,3-3h9c1.7,0,3,1.3,3,3v9
				C261.7,139.9,260.4,141.2,258.7,141.2z"/>
			<path class="st0" d="M260.2,123.2h-12c-1.1,0-2-0.9-2-2v-12c0-1.1,0.9-2,2-2h12c1.1,0,2,0.9,2,2v12
				C262.2,122.3,261.3,123.2,260.2,123.2z"/>
			<path class="st0" d="M277.3,122.7h-9c-1.7,0-3-1.3-3-3v-9c0-1.7,1.3-3,3-3h9c1.7,0,3,1.3,3,3v9
				C280.3,121.3,279,122.7,277.3,122.7z"/>
			<path class="st0" d="M240.2,141.2h-9c-1.7,0-3-1.3-3-3v-9c0-1.7,1.3-3,3-3h9c1.7,0,3,1.3,3,3v9
				C243.2,139.9,241.8,141.2,240.2,141.2z"/>
			<path class="st0" d="M241.7,104.6h-12c-1.1,0-2-0.9-2-2v-12c0-1.1,0.9-2,2-2h12c1.1,0,2,0.9,2,2v12
				C243.7,103.7,242.8,104.6,241.7,104.6z"/>
			<path class="st0" d="M258.7,104.1h-9c-1.7,0-3-1.3-3-3v-9c0-1.7,1.3-3,3-3h9c1.7,0,3,1.3,3,3v9
				C261.7,102.8,260.4,104.1,258.7,104.1z"/>
			<path class="st0" d="M274.3,103.1h-3c-2.8,0-5-2.2-5-5v-3c0-2.8,2.2-5,5-5h3c2.8,0,5,2.2,5,5v3
				C279.3,100.9,277.1,103.1,274.3,103.1z"/>
			<path class="st0" d="M292.9,103.1h-3c-2.8,0-5-2.2-5-5v-3c0-2.8,2.2-5,5-5h3c2.8,0,5,2.2,5,5v3
				C297.9,100.9,295.6,103.1,292.9,103.1z"/>
			<path class="st0" d="M186,67.5h-12c-1.1,0-2-0.9-2-2v-12c0-1.1,0.9-2,2-2h12c1.1,0,2,0.9,2,2v12C188,66.6,187.1,67.5,186,67.5z"
				/>
			<path class="st0" d="M181.5,47.4h-3c-2.8,0-5-2.2-5-5v-3c0-2.8,2.2-5,5-5h3c2.8,0,5,2.2,5,5v3C186.5,45.2,184.3,47.4,181.5,47.4z
				"/>
			<path class="st0" d="M205.8,86.3h-14.5c-0.6,0-1-0.4-1-1V70.8c0-0.6,0.4-1,1-1h14.5c0.6,0,1,0.4,1,1v14.5
				C206.8,85.9,206.4,86.3,205.8,86.3z"/>
			<path class="st0" d="M223.1,86h-12c-1.1,0-2-0.9-2-2V72c0-1.1,0.9-2,2-2h12c1.1,0,2,0.9,2,2v12C225.1,85.2,224.2,86,223.1,86z"/>
			<path class="st0" d="M204.6,67.5h-12c-1.1,0-2-0.9-2-2v-12c0-1.1,0.9-2,2-2h12c1.1,0,2,0.9,2,2v12
				C206.6,66.6,205.7,67.5,204.6,67.5z"/>
			<path class="st0" d="M223.1,67.5h-12c-1.1,0-2-0.9-2-2v-12c0-1.1,0.9-2,2-2h12c1.1,0,2,0.9,2,2v12
				C225.1,66.6,224.2,67.5,223.1,67.5z"/>
			<path class="st0" d="M240.2,85.5h-9c-1.7,0-3-1.3-3-3v-9c0-1.7,1.3-3,3-3h9c1.7,0,3,1.3,3,3v9C243.2,84.2,241.8,85.5,240.2,85.5z
				"/>
			<path class="st0" d="M240.2,67h-9c-1.7,0-3-1.3-3-3v-9c0-1.7,1.3-3,3-3h9c1.7,0,3,1.3,3,3v9C243.2,65.6,241.8,67,240.2,67z"/>
			<path class="st0" d="M167.4,67.5h-12c-1.1,0-2-0.9-2-2v-12c0-1.1,0.9-2,2-2h12c1.1,0,2,0.9,2,2v12
				C169.4,66.6,168.6,67.5,167.4,67.5z"/>
			<path class="st0" d="M147.4,67h-9c-1.7,0-3-1.3-3-3v-9c0-1.7,1.3-3,3-3h9c1.7,0,3,1.3,3,3v9C150.4,65.6,149,67,147.4,67z"/>
			<path class="st0" d="M128.8,67h-9c-1.7,0-3-1.3-3-3v-9c0-1.7,1.3-3,3-3h9c1.7,0,3,1.3,3,3v9C131.8,65.6,130.5,67,128.8,67z"/>
			<path class="st0" d="M203.1,48.4h-9c-1.7,0-3-1.3-3-3v-9c0-1.7,1.3-3,3-3h9c1.7,0,3,1.3,3,3v9C206.1,47.1,204.7,48.4,203.1,48.4z
				"/>
			<path class="st0" d="M218.6,47.4h-3c-2.8,0-5-2.2-5-5v-3c0-2.8,2.2-5,5-5h3c2.8,0,5,2.2,5,5v3C223.6,45.2,221.4,47.4,218.6,47.4z
				"/>
			<path class="st0" d="M107.3,66h-3c-2.8,0-5-2.2-5-5v-3c0-2.8,2.2-5,5-5h3c2.8,0,5,2.2,5,5v3C112.3,63.8,110,66,107.3,66z"/>
			<path class="st0" d="M241.7,123.2h-12c-1.1,0-2-0.9-2-2v-12c0-1.1,0.9-2,2-2h12c1.1,0,2,0.9,2,2v12
				C243.7,122.3,242.8,123.2,241.7,123.2z"/>
			<path class="st0" d="M130.3,160.3h-12c-1.1,0-2-0.9-2-2v-12c0-1.1,0.9-2,2-2h12c1.1,0,2,0.9,2,2v12
				C132.3,159.4,131.4,160.3,130.3,160.3z"/>
			<polygon class="st1" points="169.9,106.7 169.9,123.7 151.4,123.7 151.4,142.2 134.4,142.2 134.4,123.7 115.8,123.7 115.8,106.7 
				134.4,106.7 134.4,88.1 151.4,88.1 151.4,106.7 			"/>
		</g>
		<text transform="matrix(1.0189 0 0 1 308.5654 69.5484)"><tspan x="0" y="0" class="st2 st3">Swiss Esports Federation</tspan><tspan x="0" y="29.6" class="st2 st3">Schweizerischer Esports Verband</tspan><tspan x="0" y="59.3" class="st2 st3">Fédération Suisse d‘Esports</tspan><tspan x="0" y="88.9" class="st2 st3">Federazione Svizzera di Esports</tspan></text>
	</g>
</g>
</svg>
