<svg id="img" viewBox="0 0 44 31" xmlns="http://www.w3.org/2000/svg">
  <path
    d="M6.6 13.3125C9.02688 13.3125 11 11.3506 11 8.9375C11 6.52441 9.02688 4.5625 6.6 4.5625C4.17313 4.5625 2.2 6.52441 2.2 8.9375C2.2 11.3506 4.17313 13.3125 6.6 13.3125ZM37.4 13.3125C39.8269 13.3125 41.8 11.3506 41.8 8.9375C41.8 6.52441 39.8269 4.5625 37.4 4.5625C34.9731 4.5625 33 6.52441 33 8.9375C33 11.3506 34.9731 13.3125 37.4 13.3125ZM39.6 15.5H35.2C33.99 15.5 32.8969 15.9854 32.0994 16.7715C34.87 18.2822 36.8363 21.0098 37.2625 24.25H41.8C43.0169 24.25 44 23.2725 44 22.0625V19.875C44 17.4619 42.0269 15.5 39.6 15.5ZM22 15.5C26.2556 15.5 29.7 12.0752 29.7 7.84375C29.7 3.6123 26.2556 0.1875 22 0.1875C17.7444 0.1875 14.3 3.6123 14.3 7.84375C14.3 12.0752 17.7444 15.5 22 15.5ZM27.28 17.6875H26.7094C25.2794 18.3711 23.6912 18.7812 22 18.7812C20.3088 18.7812 18.7275 18.3711 17.2906 17.6875H16.72C12.3475 17.6875 8.8 21.2148 8.8 25.5625V27.5312C8.8 29.3428 10.2781 30.8125 12.1 30.8125H31.9C33.7219 30.8125 35.2 29.3428 35.2 27.5312V25.5625C35.2 21.2148 31.6525 17.6875 27.28 17.6875ZM11.9006 16.7715C11.1031 15.9854 10.01 15.5 8.8 15.5H4.4C1.97313 15.5 0 17.4619 0 19.875V22.0625C0 23.2725 0.983125 24.25 2.2 24.25H6.73063C7.16375 21.0098 9.13 18.2822 11.9006 16.7715Z"
    fill="currentColor"/>
</svg>
